<svg xmlns="http://www.w3.org/2000/svg">

  <symbol id="candlestick" viewBox="0 0 33 81">
    <g
       transform="matrix(1.0001407,0,0,0.98412513,-35.808267,-0.86297155)"
       id="g71">
      <path
         style="fill:#8c9d95;fill-opacity:1;stroke:#000000;stroke-width:1px;stroke-linecap:butt;stroke-linejoin:miter;stroke-opacity:1"
         d="M 42.228656,1.882 43.321,1.3965551 59.49,1.4572281 60.582,1.882 v 1.82 L 59.49,4.309 H 43.321 L 42.228657,3.702 Z"
         id="path37" />
      <path
         style="fill:#8c9d95;fill-opacity:1;stroke:#000000;stroke-width:1px;stroke-linecap:butt;stroke-linejoin:miter;stroke-opacity:1"
         d="m 45.444,4.309 v 6.34 l 2.913,5.795 h 6.097 l 2.913,-5.795 v -6.34 z"
         id="path41" />
      <path
         id="path45"
         d="m 48.357,16.444 v 2.93 h 6.097 v -2.93 z"
         style="fill:#8c9d95;fill-opacity:1;stroke:#000000;stroke-width:1px;stroke-linecap:butt;stroke-linejoin:miter;stroke-opacity:1" />
      <path
         style="fill:#8c9d95;fill-opacity:1;stroke:#000000;stroke-width:1px;stroke-linecap:butt;stroke-linejoin:miter;stroke-opacity:1"
         d="m 48.357,19.374 v 1.923 l 0.970439,1.275 v 30.7 L 48.357,59.34 h 6.097 l -0.97,-6.068 v -30.7 l 0.97,-1.275 v -1.923 z"
         id="path47" />
      <path
         style="fill:#8c9d95;fill-opacity:1;stroke:#000000;stroke-width:1px;stroke-linecap:butt;stroke-linejoin:miter;stroke-opacity:1"
         d="m 47.325,59.34 v 6.37 l -2.062676,3.58 c -0.303823,1.460439 1.192967,1.480387 2.062676,2.002 3.377806,1.494257 5.687912,0.561921 8.161,0 1.125784,-0.328788 2.726311,-0.29073 2.063,-2.002 l -2.063,-3.58 v -6.37 z"
         id="path49" />
      <path
         style="fill:#8c9d95;fill-opacity:1;stroke:#000000;stroke-width:1px;stroke-linecap:butt;stroke-linejoin:miter;stroke-opacity:1"
         d="m 45.262,69.29 -7.341,4.733 c -0.763566,1.175218 1.028409,2.513403 2.669,3.337 1.599567,0.460588 3.236022,0.975795 4.672,1.191 6.9868,1.117029 8.753741,0.217294 12.287,0 1.686722,-0.181909 3.244277,-0.579094 4.673,-1.191 1.953912,-1.176434 3.168121,-2.816439 2.668,-3.337 -3.161373,-1.807809 -3.245987,-2.247822 -7.341,-4.733 -0.479539,1.187652 -1.24314,1.665151 -2.063,2.002 -2.720333,0.883779 -5.440667,0.835937 -8.161,0 -1.195477,-0.498063 -1.621425,-1.252636 -2.063,-2.002 z"
         id="path51" />
      <path
         style="fill:#8c9d95;fill-opacity:1;stroke:#000000;stroke-width:1px;stroke-linecap:butt;stroke-linejoin:miter;stroke-opacity:1"
         d="m 37.921,74.023 c -0.635128,0.981051 -1.45461,1.716298 -1.61,3.337 0.190515,1.145724 0.253837,1.283303 1.61,2.489 1.429918,0.854421 2.825895,1.776723 4.503885,2.135 4.64637,0.548717 9.03612,1.2031 17.936903,0 1.686655,-0.327624 3.347577,-0.711 4.528212,-2.135 0.42443,-0.571006 1.18585,-1.26035 1.61,-2.489 0.002,-1.423381 -0.925627,-2.30907 -1.61,-3.337 0.401159,0.614383 -1.350923,2.613524 -2.668,3.337 -1.381881,0.572786 -3.042609,0.866725 -4.673,1.191 -3.998987,0.54785 -8.033238,0.895872 -12.287,0 -1.512776,-0.307886 -3.073248,-0.711162 -4.672,-1.191 -1.350182,-0.789973 -2.951875,-2.977678 -2.669,-3.337 z"
         id="path53" />
    </g>
  </symbol>

  <symbol id="knife" viewBox="0 0 17 88">
    <g
       style="display:inline"
       id="layer3">
      <g
         transform="translate(-0.11831899,0.200736)"
         id="g110">
        <g
           id="g99"
           transform="translate(-15.486276)">
          <g
             transform="translate(-23.124303,0.42044192)"
             id="g81">
            <path
               style="display:inline;fill:#8c9d95;fill-opacity:1;stroke:#000000;stroke-width:1px;stroke-linecap:butt;stroke-linejoin:miter;stroke-opacity:1"
               d="m 47.838818,0.09982825 2.63171,3.99007225 0.87987,3.0600493 0.847322,5.1659052 0.801294,14.891827 0.290254,27.817822 -10.975225,0.04955 -0.07007,-37.831081 1.056814,-8.0885996 0.974718,-3.3941444 0.880598,-2.5072322 z"
               id="path36" />
            <g
               id="g74"
               transform="translate(17.800371,-5.536274)">
              <path
                 id="path69"
                 d="m 24.513672,54.654297 v 5.957031 h 10.722656 v -5.957031 z"
                 style="display:inline;fill:none;stroke:#000000;stroke-width:1px;stroke-linecap:butt;stroke-linejoin:miter;stroke-opacity:1" />
              <path
                 id="path67"
                 d="m 28.589844,26.642578 -3.923828,-0.02734 v 27.890625 h 3.923828 z"
                 style="display:inline;fill:none;stroke:#000000;stroke-width:1px;stroke-linecap:butt;stroke-linejoin:miter;stroke-opacity:1" />
              <path
                 id="path38"
                 d="m 24.595706,24.583984 0.07031,2.03125 3.923828,0.02734 6.095703,0.04297 v -2.101563 z"
                 style="display:inline;fill:none;stroke:#000000;stroke-width:1px;stroke-linecap:butt;stroke-linejoin:miter;stroke-opacity:1" />
            </g>
          </g>
          <path
             id="path88"
             d="m 20.068562,55.495496 v 5.816113 h 8.969426 V 55.56557 Z"
             style="fill:#8c9d95;fill-opacity:1;stroke:#000000;stroke-width:1px;stroke-linecap:butt;stroke-linejoin:miter;stroke-opacity:1" />
        </g>
        <path
           style="fill:#8c9d95;fill-opacity:1;stroke:#000000;stroke-width:1px;stroke-linecap:butt;stroke-linejoin:miter;stroke-opacity:1"
           d="M 0.63066281,61.301941 H 16.677528 v 2.662799 l -6.026334,5.465744 v 10.721268 l 5.95626,5.325597 v 1.821915 H 0.70073646 V 85.617496 L 6.5168489,80.221825 V 69.430484 L 0.70073646,64.174961 Z"
           id="path90" />
      </g>
    </g>
    <g
       style="display:inline"
       id="layer4" />
  </symbol>

  <symbol id="pipe" viewBox="0 0 28 90">
    <path
       id="path32"
       d="M 12.022979,0.68004722 C 13.00419,1.8686622 14.452364,47.729329 14.850814,50.958592 c 0.398824,3.232287 12.017594,34.329026 12.017594,34.329026 0.433586,1.391967 3.336741,4.760077 -5.599106,4.307956 C 11.979156,89.125527 2.3766696,50.51529 2.3766696,50.51529 2.0123242,35.123495 0.61721595,19.89108 0.51164099,4.244191 1.6775303,2.8888121 2.7327024,1.4424797 4.6402622,0.69637981 8.5528241,0.30932619 9.8893047,0.59946917 12.022979,0.68004722 Z"
       style="fill:#8c9d95;fill-opacity:1;stroke:#000000;stroke-width:1.00564003px;stroke-linecap:butt;stroke-linejoin:miter;stroke-opacity:1" />
  </symbol>

  <symbol id="revolver" viewBox="0 0 41 82">
    <g
       id="g68">
      <path
         style="fill:#8c9d95;stroke:#000000;stroke-width:1px;stroke-linecap:butt;stroke-linejoin:miter;stroke-opacity:1;fill-opacity:1"
         d="M 4.513,1.4190117 5.3633598,0.5 H 17.572604 l 0.957263,0.9190117 V 37.487 H 5.504 V 12.324966 L 4.5128088,11.43608 Z"
         id="path20" />
      <path
         style="fill:#8c9d95;stroke:#000000;stroke-width:1px;stroke-linecap:butt;stroke-linejoin:miter;stroke-opacity:1;fill-opacity:1"
         d="M 8.4786106,37.487 V 0.5 h 3.8632374 v 36.987 z"
         id="path22" />
      <path
         style="fill:#8c9d95;stroke:#000000;stroke-width:1px;stroke-linecap:butt;stroke-linejoin:miter;stroke-opacity:1;fill-opacity:1"
         d="M 12.341848,37.384731 15.452952,37.487 V 0.5 L 12.376036,0.495937 Z"
         id="path24" />
      <path
         style="fill:#8c9d95;stroke:#000000;stroke-width:1px;stroke-linecap:butt;stroke-linejoin:miter;stroke-opacity:1;fill-opacity:1"
         d="M 4.513,11.436 H 2.49572 v 2.085545 l 3.00828,2.085464 2.593e-4,-3.282043 z"
         id="path26" />
      <path
         style="fill:#8c9d95;stroke:#000000;stroke-width:1px;stroke-linecap:butt;stroke-linejoin:miter;stroke-opacity:1;fill-opacity:1"
         d="M 3.4529825,37.487295 C 3.3605306,37.487197 14.194667,37.487098 19.589693,37.487 l 0.786323,0.992 h 1.230766 l 0.717947,-0.992 c 1.203842,-0.436469 2.627746,-0.286106 4.102553,0 1.457437,1.085216 2.868251,2.263676 3.965802,4.068664 0.52829,2.751214 0.278121,5.405121 0.102564,8.068355 -0.683759,1.88728 -1.367518,2.865771 -2.051277,3.965802 -0.734743,1.621526 -1.776704,2.782223 -2.871788,3.863238 -1.878918,0.279436 -3.550715,0.685478 -7.008583,0 v 2.085465 l 6.854734,6.923059 3.035646,0.660087 c 2.178642,0.317617 4.507217,0.577131 7.135268,0.314269 2.287681,1.014594 3.827652,2.444582 4.957252,4.102554 v 5.948702 c -0.713952,2.476521 -2.540799,3.045221 -4.102554,4.068366 h -10.08544 c -0.510327,-0.364673 -1.087668,-0.439252 -2.099626,-0.803925 -1.300072,-0.40194 -2.159082,-1.11667 -2.954324,-1.392403 L 18.427303,77.453003 10.564075,69.589776 9.435873,67.572687 8.5127985,62.581247 7.4871601,56.598356 6.4615218,50.478714 5.47,48.461625 l 7.13e-5,-8.957242 z"
         id="path28" />
      <path
         style="fill:#ffffff;stroke:#000000;stroke-width:1px;stroke-linecap:butt;stroke-linejoin:miter;stroke-opacity:1"
         d="m 24.376005,40.53 -2.393156,1.333352 -1.230766,2.017088 -0.205128,2.769224 c 0.218398,0.915971 0.864732,1.51099 1.811962,1.880337 1.449595,0.551684 2.690081,0.162377 3.965801,-0.06838 1.305397,-1.174009 1.701999,-1.984499 2.119653,-2.803411 0.354071,-1.203733 0.141764,-2.180916 0.06838,-3.213667 -0.522753,-0.950259 -1.176076,-1.508808 -1.880337,-1.914543 -0.678953,-0.146366 -1.396542,-0.215462 -2.256409,0 z"
         id="path30" />
      <path
         style="fill:#ffffff;stroke:#000000;stroke-width:1px;stroke-linecap:butt;stroke-linejoin:miter;stroke-opacity:1"
         d="m 19.453,51.436 v 2.119629 c 0.23214,0.280642 0.242094,0.427972 0.88883,0.957371 1.440698,0.604657 2.821175,0.486666 4.170929,0 1.328651,-0.602144 2.177802,-1.615287 2.872241,-2.761041 V 50.307772 L 24.717887,51.436 c -1.825558,0.705957 -3.521926,0.120009 -5.264887,0 z"
         id="path34" />
      <path
         style="fill:#8c9d95;stroke:#000000;stroke-width:1px;stroke-linecap:butt;stroke-linejoin:miter;stroke-opacity:1;fill-opacity:1"
         d="M 3.4529825,37.487295 C 3.1792783,37.442055 2.1338553,38.719761 1.4358937,39.40182 0.78420782,40.207418 0.67242455,40.914851 0.504,41.632583 V 55.641094 C 1.2636265,58.120312 2.9906136,59.645762 5.436,60.462 H 8.0683552 L 6.4615218,50.478714 5.47,48.461625 v -8.957242 z"
         id="path36" />
    </g>
  </symbol>

  <symbol id="rope" viewBox="0 0 38 105">
    <path
       id="path4630"
       d="m 13.980072,1.0080108 0.007,1.0010593 0.994108,0.00695 0.0139,3.9833819 0.987156,0.00695 0.007,4.991393 h 0.945445 l 0.0139,5.012248 -0.938494,-0.0139 -0.007,1.00106 0.994107,0.0139 -0.007,0.994108 h 2.002119 v 0.994107 l 1.960408,-0.007 0.03476,1.008011 1.001059,0.0139 v 0.987156 l 0.994108,0.007 0.0139,0.980204 2.002119,0.007 0.0139,-3.997286 0.973252,0.007 0.0139,2.996226 h 0.987156 l 0.007,1.988215 1.001059,0.0139 0.0139,1.981263 0.994107,0.007 v -0.994108 l 0.973252,0.007 0.02781,4.998345 h 1.981263 l 0.0139,2.002119 -0.994107,-0.0139 -0.0139,2.002119 -0.980204,0.007 v 1.995167 l 1.988215,0.0139 v 1.995167 l -1.001059,-0.007 -0.007,0.994107 -0.980204,0.007 -0.007,2.002119 -1.00106,-0.007 0.007,2.009071 0.987156,0.007 v 0.973252 l -0.994108,0.0139 v 0.987156 l -1.001059,0.0139 -0.007,0.987156 1.001059,0.0139 0.0139,0.994107 0.994108,0.0139 0.994107,0.02781 0.007,0.952397 0.994107,0.0139 0.0139,1.008011 0.973252,-0.007 0.007,5.005296 -1.988215,-0.02085 -0.007,-0.987156 h -1.995167 v -1.008011 h -3.01013 l 0.007,1.001059 h -1.008011 v 1.014963 l -4.991393,-0.007 v 0.994108 l -1.995167,0.007 -0.007,0.987156 H 12.99289 v -0.980204 l -3.9903339,-0.007 v 0.987156 l 1.9882149,0.0139 0.0139,1.988215 0.994107,0.007 v 0.980204 l 2.982323,0.02085 0.0139,0.987156 h 2.009071 l -0.007,-0.980204 2.996226,-0.0139 0.007,-1.995167 h 1.988215 l 0.0139,-0.987156 2.989274,-0.0139 v -0.987155 l 0.994108,-0.007 0.0139,-1.008011 3.990334,0.0139 0.007,0.987156 h 0.987155 l 0.007,1.001059 h -1.995167 v 0.994108 l 0.987156,0.007 0.0139,0.994107 -1.995167,0.0139 v 1.981263 l 0.973252,0.0139 0.02086,0.980204 -1.008011,0.02086 0.0139,2.989274 1.988215,0.0139 0.007,2.989274 0.994107,0.0139 0.0139,2.982322 0.980204,-0.007 0.0139,2.002118 0.987156,0.0139 0.0139,1.001059 h -1.00106 l -0.0139,3.990334 2.002118,0.0139 0.007,4.991393 0.994108,0.0139 0.007,4.998345 h -0.994108 v 0.987156 l 0.980204,0.007 0.0139,1.988215 -0.994108,0.007 0.007,2.002119 -1.008011,-0.007 -0.007,2.002119 -1.001059,0.007 0.007,1.995167 -1.001059,0.007 v 0.980204 l -1.001059,0.0139 0.007,2.002119 -1.00106,-0.007 0.02781,0.973252 -1.035818,0.03476 0.0139,0.9663 -3.024034,0.0139 0.007,-0.973252 -2.982322,-0.0139 -0.007,-1.001059 h 0.980204 l 0.007,-0.987156 -0.980203,-0.02086 -0.0139,-0.973253 -1.995167,-0.02085 0.0139,-0.987156 -1.014963,-0.007 v -0.987156 l -1.00106,-0.0139 0.0139,-2.989274 4.963586,0.007 0.5,-0.483713 0.521915,-0.53125 V 79.007217 h 0.994107 l 0.007,-1.00106 -1.008011,-0.007 v -2.996226 h -1.091433 l -0.50338,-1.213917 -0.379502,-0.78825 -0.02085,-1.988215 -1.001059,-0.0139 0.007,-0.987156 -0.980203,-0.03476 -0.02086,-0.973252 -1.00801,-1.995627 -4e-6,-5.99204 -1.995167,-0.0139 v 1.008011 l -2.002119,-0.007 v 2.989274 h -1.001059 l 0.0139,1.001059 1.974311,0.007 0.007,2.002119 h -1.008011 l 0.02086,0.987155 -1.008011,0.007 0.0139,0.994108 -1.008011,0.007 0.007,0.987155 -1.001059,0.02086 -0.007,0.973252 1.995167,0.02086 0.0139,2.002119 h -1.008011 v 1.001059 l -0.987156,-0.0139 v 1.008011 l -1.008011,-0.007 -0.007,0.994107 -1.0010593,0.007 v 2.009071 l 0.9941073,0.007 0.02086,0.994107 0.987155,0.007 v 1.988215 h -0.994107 l 0.007,2.996226 h -1.008012 v 1.001059 H 8.9886785 l 0.00695,1.00106 2.0090705,0.0139 -0.007,-1.008011 h 1.988215 l 0.0139,5.992453 1.001059,0.0139 -0.007,-1.014963 1.008011,0.0139 -0.007,-1.008011 0.994108,0.007 0.007,2.996226 h 0.980204 l 0.007,0.994107 h 1.001059 l 0.007,1.988215 0.987155,0.02086 0.02086,0.994107 h 0.994107 l 0.007,1.00106 0.987156,0.007 0.0139,0.994108 h 0.987156 v 1.014968 l 1.008011,-0.007 -0.0139,0.9941 h 1.995167 l 0.0139,0.99411 1.035818,0.0209 0.0139,1.05667 -2.036878,-0.0834 -0.0139,-0.9802 -1.995167,-0.0209 0.0139,-0.9802 -1.014963,-0.0139 v -0.98715 h -0.994108 v -1.001066 l -1.001059,-0.0139 v -0.994107 h -1.008011 l 0.007,-1.00106 h -1.995166 l -0.007,2.996226 1.995167,0.01391 0.007,1.00106 h 0.987156 l 0.007,0.9802 0.980204,0.0139 0.02781,0.99411 0.987156,0.007 0.007,1.00106 -3.990334,-0.0139 v -1.98822 l -1.001059,-0.007 v -0.98715 l -1.00106,-0.0139 0.007,-1.981237 -1.014963,-0.02085 0.007,-3.990334 -1.008011,-0.007 0.007,-0.994108 h -1.008012 l 0.0139,3.997286 0.980204,0.0139 0.02086,1.988203 0.994108,0.0139 v 2.99214 l -2.989274,-1.00393 -0.007,-9.996669 -3.003178,-0.0139 v 2.00907 H 9.0028663 L 8.9959163,99.994833 7.0494121,99.967023 5.9179918,98.006877 4.9986304,96.998608 4.3619134,95.607014 3.9975729,94.996493 V 93.00815 L 3.0170816,92.99424 3.003178,91.006025 H 1.0219147 l -0.013904,-4.011189 0.9802039,0.007 0.013904,-2.002119 0.9941075,0.007 v -1.00106 l -1.0080112,-0.007 0.013904,-1.00106 H 0.99410752 l 0.006952,-3.997285 h 0.9802039 l 0.020856,-6.993512 0.9941075,-0.0139 0.00695,-6.993511 h 1.0010593 l -0.013904,-7.973716 1.0080111,-0.0139 0.00695,-4.998345 -0.9941075,-0.007 v -3.997286 h 2.9823226 l 0.00695,0.973253 0.9871557,0.02086 0.00695,1.001059 0.9871557,-0.007 0.013904,2.00907 4.0042382,-0.007 0.007,-1.008011 1.995167,0.007 -0.007,-0.994108 h -1.988215 l -0.007,-0.994107 -3.0031788,-0.02086 v -0.980204 l -2.0021187,-0.007 v -1.008011 l 2.0090705,0.0139 v -1.008011 l 0.994108,0.007 0.007,0.987156 1.001059,0.007 -0.007,1.008011 1.981264,-0.007 0.0139,1.008011 h 2.002119 v 1.988215 h 1.001059 v -1.001059 l 1.995167,0.007 v -1.001059 l 0.994107,0.007 0.007,-1.008011 1.995167,-0.007 v -0.994108 l 1.008011,-0.007 v -1.995167 h 1.995167 v -0.987156 l 1.001059,0.02085 0.007,-2.016022 1.00106,-0.007 0.0139,-2.00907 h 0.973252 l 0.007,-6.006356 h 0.994108 v -3.983382 l -0.994108,-0.0139 -0.007,3.01013 h -0.994107 l 0.007,0.994108 h -1.008012 v 1.008011 l -1.001059,-0.007 0.007,1.008011 -1.001059,-0.007 0.007,1.00106 -1.008011,-0.007 -0.0139,2.002119 1.028866,0.007 -0.007,-1.001059 h 1.995167 v 1.001059 l -1.014963,-0.0139 0.007,1.014963 -0.994107,-0.0139 v 2.009071 l -0.994108,0.007 -0.007,1.988215 h -1.001059 v 1.00106 h -2.996226 v 1.001059 h -3.997286 l -0.007,0.994108 H 12.00576 l 0.007,-0.994108 -1.015065,0.007 1.02e-4,-1.008099 3.997285,0.0139 v -2.00907 l -0.987155,0.007 -0.02086,-3.003178 h -0.987155 v 2.996226 H 11.9919 v 1.008011 l -1.001059,-0.007 0.007,0.994111 -3.003179,0 v -0.987156 h 1.9951668 v -1.014963 l 1.0080112,0.02086 -0.007,-2.016022 1.008011,-0.007 0.007,-2.989274 h 1.001059 l -0.007,-0.994108 0.994107,-0.0139 v -0.987156 l -0.987156,-0.02086 v -0.987156 h -1.008011 l 0.007,1.988215 -1.008011,0.007 v 1.001059 l -2.0021187,0.007 -0.00695,0.994108 -1.9812632,-0.007 0.00695,-0.987156 0.9802039,-0.007 0.013904,-1.001059 h 2.002118 l -0.007,-1.001059 1.00106,0.0139 v -2.022974 l 0.994107,0.0139 -0.007,-1.00106 1.014963,0.007 -0.007,-1.008011 -1.00106,0.007 v -0.994108 l -1.001059,-0.02086 v 0.994107 l -1.0010589,0.007 v 1.008011 l -4.0111892,0.0139 0.020856,-1.021915 2.9962261,0.007 V 30.99808 h 1.001059 l -0.00695,-1.00106 1.008011,-0.007 -0.007,-1.00106 1.001059,0.007 0.007,-0.994107 0.987156,-0.007 0.007,-2.009071 1.001059,0.02086 0.007,-1.021915 0.987155,0.007 -0.007,-0.994108 h 1.014963 l -0.007,-1.001059 1.995167,0.02086 -0.007,0.966301 1.014963,0.02781 0.007,1.981263 h 1.988215 v 1.001059 l 0.994107,0.0139 0.007,0.980204 0.994107,0.02085 v 1.00106 l 1.028867,0.0139 -0.02085,-2.002118 -0.994108,-0.03476 -0.007,-0.994108 1.988215,0.007 0.007,4.004237 -1.008011,-0.02086 v 4.011189 l -0.994108,0.007 0.0139,1.008011 1.001059,0.007 -0.02085,-1.014963 1.014963,-0.007 -0.007,-1.008011 1.001059,0.0139 0.007,-2.002118 h 1.00106 v -2.002119 l 1.001059,0.007 -0.007,-2.002119 h -0.994107 v -1.001059 l -1.008012,-0.007 v -2.996226 l -1.001059,-0.007 v 1.014963 h -0.994107 l 0.007,1.001059 -2.002118,-0.0139 V 22.00249 l -1.00106,-0.007 -0.007,-1.00106 -1.008012,-0.007 0.0139,-0.987155 h -4.004237 v 0.994107 l -3.003178,0.007 v 1.001059 l -2.009071,-0.007 0.02086,0.994107 -1.0149629,0.007 v 1.001059 l -0.9871557,0.007 v 0.994108 H 9.996598 v -1.00106 l 1.008011,0.007 -0.0139,-1.021915 0.987156,0.007 0.0139,2.022974 -0.987155,-0.02085 v 1.014963 H 9.9966897 l 0.00695,1.008011 -1.0080131,-0.0139 v 2.009071 l -2.0021186,-0.0139 -0.048961,-2.313786 -0.9520984,-0.717202 0.00695,-1.946504 1.0080111,-0.02086 -0.00695,-0.973252 1.0010593,-0.03476 -0.020855,-0.980204 1.0010593,-0.02086 0.00695,-0.980204 1.0010593,-0.0139 -0.020855,-0.994107 h 1.0219161 l -0.0139,-0.987156 1.021914,-0.007 -0.007,-0.994107 1.008012,-0.02086 0.0139,-0.980204 0.606576,0.321117 0.122371,-2.889301 -0.728943,-0.434942 -0.007,-13.02767441 z"
       style="fill:#b49277;fill-opacity:1;stroke:#000000;stroke-width:0;stroke-linecap:butt;stroke-linejoin:miter;stroke-miterlimit:4;stroke-dasharray:none;stroke-opacity:1" />
    <path
       id="path4632"
       d="m 14.995034,12.999867 h 0.994108 l 0.02085,1.00106 -1.008011,-0.007 z"
       style="fill:#d9ba7a;stroke:#000000;stroke-width:0;stroke-linecap:butt;stroke-linejoin:miter;stroke-opacity:1;stroke-miterlimit:4;stroke-dasharray:none;fill-opacity:1" />
    <path
       id="path4634"
       d="m 16.948581,16.009993 0.04861,1.00106 5.999363,-0.0139 v 0 l 2.01601,1.001107 -0.0139,3.997286 -2.002119,-0.007 -0.0139,-0.980204 -0.994108,-0.007 v -0.987156 l -1.001059,-0.0139 -0.03476,-1.008011 -1.960408,0.007 v -0.994107 h -2.002119 l 0.007,-0.994108 -0.994107,-0.0139 0.007,-1.00106 z"
       style="fill:#d9ba7a;fill-opacity:1;stroke:#000000;stroke-width:0;stroke-linecap:butt;stroke-linejoin:miter;stroke-miterlimit:4;stroke-dasharray:none;stroke-opacity:1" />
    <path
       id="path4636"
       d="m 13.980072,1.0080108 2.020419,-0.00383 -0.01825,5.0021721 -0.987156,-0.00695 -0.0139,-3.9833819 -0.994108,-0.00695 z"
       style="fill:#d9ba7a;stroke:#000000;stroke-width:0;stroke-linecap:butt;stroke-linejoin:miter;stroke-opacity:1;stroke-miterlimit:4;stroke-dasharray:none;fill-opacity:1" />
    <path
       id="path4638"
       d="m 15.984375,7 1.349794,1.3490064 -0.399492,2.6487386 h -0.945445 z"
       style="fill:#d9ba7a;fill-opacity:1;stroke:#000000;stroke-width:0;stroke-linecap:butt;stroke-linejoin:miter;stroke-miterlimit:4;stroke-dasharray:none;stroke-opacity:1" />
    <path
       id="path4640"
       d="m 13.987456,26.986235 0.999893,0.01105 0.0055,-0.999893 h 0.999894 l 0.0055,0.994369 -1.005418,0.0055 0.01105,1.005418 h -1.005417 z"
       style="fill:#d9ba7a;stroke:#000000;stroke-width:0;stroke-linecap:butt;stroke-linejoin:miter;stroke-opacity:1;stroke-miterlimit:4;stroke-dasharray:none;fill-opacity:1" />
    <path
       id="path4642"
       d="m 5.9883106,27.997176 0.9998931,0.01105 0.00531,0.987884 2.0021186,0.0139 v -2.009071 l 1.0080117,0.0139 -0.00695,-1.008011 h 1.007916 v -1.014963 l 0.987155,0.02085 -0.0139,-2.022974 -0.973256,-1.92e-4 v 1.015107 l -1.008011,-0.007 v 1.00106 H 9.0024904 v -0.994108 l 0.9871557,-0.007 v -1.001059 l 1.0010629,-0.01381 -0.007,-0.987299 2.009071,0.007 v -1.001059 l 3.003178,-0.007 v -0.994107 h 4.004237 l -0.0139,0.987155 1.008012,0.007 0.007,1.00106 1.00106,0.007 v 2.989275 l 2.002118,0.0139 -0.007,-1.001059 h 0.994107 v -1.014963 l 1.001059,0.007 v 2.996226 l 1.008012,0.007 v 1.001059 h 0.994107 l 0.007,2.002119 -1.001059,-0.007 v 2.002119 h -1.00106 l -0.007,2.002118 -1.001059,-0.0139 0.007,1.008011 -1.014963,0.007 0.02085,1.014963 -1.001059,-0.007 -0.0139,-1.008011 0.994108,-0.007 v -4.011189 l 1.008011,0.02086 -0.007,-4.004237 -1.988215,-0.007 0.007,0.994108 0.994108,0.03476 0.02085,2.002118 -1.028867,-0.0139 v -1.00106 l -0.994107,-0.02085 -0.007,-0.980204 -0.994107,-0.0139 v -1.001059 h -1.988215 l -0.007,-1.981263 -1.014963,-0.02781 0.007,-0.966301 -1.995167,-0.02086 0.007,1.001059 h -1.014963 l 0.007,0.994108 -0.987155,-0.007 -0.007,1.021915 -1.001059,-0.02086 -0.007,2.009071 -0.987156,0.007 -0.007,0.994107 -1.001059,-0.007 0.007,1.00106 -1.008011,0.007 0.00695,1.00106 H 9.002484 v 1.001056 l -2.9962261,-0.007 z"
       style="fill:#d9ba7a;stroke:#000000;stroke-width:0;stroke-linecap:butt;stroke-linejoin:miter;stroke-opacity:1;stroke-miterlimit:4;stroke-dasharray:none;fill-opacity:1" />
    <path
       id="path4644"
       d="m 6.993728,33.018739 3.0028631,-0.01859 V 31.99214 l 1.0010589,-0.007 v -0.994107 l 1.001059,0.02086 v 0.994108 l 1.00106,-0.007 0.007,1.008011 -1.014963,-0.007 0.007,1.00106 -0.994107,-0.0139 v 2.022974 l -1.00106,-0.0139 0.007,1.001059 H 8.008521 l -0.013904,1.001059 -0.9802039,0.007 z"
       style="fill:#d9ba7a;stroke:#000000;stroke-width:0;stroke-linecap:butt;stroke-linejoin:miter;stroke-opacity:1;stroke-miterlimit:4;stroke-dasharray:none;fill-opacity:1" />
    <path
       id="path4646"
       d="m 25.985819,18.005258 0.01388,2.996221 h 0.987156 l 0.007,1.988215 1.001059,0.0139 0.0139,1.981263 0.994107,0.007 v -0.994108 l 0.973252,0.007 0.02781,4.998345 h 1.981263 l 0.0139,2.002119 -0.994107,-0.0139 -0.0139,2.002119 -0.980204,0.007 v 1.995167 l 1.988215,0.0139 v 1.995167 l -1.001059,-0.007 -0.007,0.994107 -0.980204,0.007 -0.007,2.002119 -1.00106,-0.007 0.007,2.009071 0.987156,0.007 v 0.973252 l -0.994108,0.0139 v 0.987156 l -1.001059,0.0139 -0.007,0.987156 1.001059,0.0139 0.007,-1.014956 0.999425,0.02224 -0.0053,-1.023301 1.010734,0.01788 -0.0055,-0.999893 h 0.999893 v -0.999893 h 0.994369 V 24.997489 h -0.999893 v -2.99968 L 30.996709,21.00344 v 0 l -1.994262,-1.010941 v 0 H 28.002553 V 18.99813 Z"
       style="fill:#d9ba7a;fill-opacity:1;stroke:#000000;stroke-width:0;stroke-linecap:butt;stroke-linejoin:miter;stroke-miterlimit:4;stroke-dasharray:none;stroke-opacity:1" />
    <path
       id="path4648"
       d="m 7.994618,44.011717 -0.4861359,-5.022766 1.4802442,0.01057 0.00695,-0.994108 2.0021187,-0.007 v -1.001059 l 1.008011,-0.007 -0.007,-1.988215 h 1.008011 v 0.987156 l 0.987156,0.02086 v 0.987156 l -0.994107,0.0139 0.007,0.994108 h -1.001059 l -0.007,2.989274 -1.008011,0.007 0.007,2.016022 -1.0080112,-0.02086 v 1.014963 z"
       style="fill:#d9ba7a;fill-opacity:1;stroke:#000000;stroke-width:0;stroke-linecap:butt;stroke-linejoin:miter;stroke-miterlimit:4;stroke-dasharray:none;stroke-opacity:1" />
    <path
       id="path4650"
       d="m 12.999912,40.007525 h 0.987155 l 0.02086,3.003178 0.987155,-0.007 v 2.00907 h -4.018141 l 0.02086,0.987159 h 1.014963 l -0.007,0.994108 h 2.989362 l 0.007,-0.994108 h 3.997286 v -1.001059 h 2.996226 v -1.00106 h 1.001059 l 0.007,-1.988215 0.994108,-0.007 v -2.009071 l 0.994107,0.0139 -0.007,-1.014963 1.014963,0.0139 v -1.001059 h -1.995167 l 0.007,1.001059 -1.028866,-0.007 0.0139,-2.002119 1.008011,0.007 -0.007,-1.00106 1.001059,0.007 -0.007,-1.008011 1.001059,0.007 v -1.008011 h 1.008012 l -0.007,-0.994108 h 0.994107 l 0.007,-3.01013 0.994108,0.0139 v 3.983382 H 27.99499 l -0.007,6.006356 h -0.973252 l -0.0139,2.00907 -1.00106,0.007 -0.007,2.016022 -1.001059,-0.02085 v 0.987156 h -1.995167 v 1.995167 l -1.008011,0.007 v 0.994108 l -1.995167,0.007 -0.007,1.008011 -0.994107,-0.007 v 1.001059 l -1.995167,-0.007 v 1.001059 H 15.996037 V 49.01015 h -2.002119 l -0.0139,-1.008011 -1.981264,0.007 0.007,-1.008011 -1.001059,-0.007 -0.007,-0.987156 -0.994108,-0.007 v 1.008011 l -2.0090705,-0.0139 v 1.008011 l 2.0021187,0.007 v 0.980204 l 3.0031788,0.02086 0.007,0.994107 h 1.988215 l 0.007,0.994108 -1.995167,-0.007 -0.007,1.008011 -4.0042382,0.007 -0.013904,-2.00907 -0.9871557,0.007 -0.00695,-1.001059 -0.9871557,-0.02086 -0.00695,-0.973253 -2.0091334,0.0065 V 47 H 6 L 6.6739612,46 H 6.984375 l 0.6629126,-1.007812 3.3296534,0.02059 0.01386,-1.007996 1.001059,0.007 v -1.008011 h 1.008012 z"
       style="fill:#d9ba7a;fill-opacity:1;stroke:#000000;stroke-width:0;stroke-linecap:butt;stroke-linejoin:miter;stroke-miterlimit:4;stroke-dasharray:none;stroke-opacity:1" />
    <path
       id="path4652"
       d="m 13,29 h 1 v 1.992188 h 0.992187 v -1 H 16 v -1 h 0.992187 V 28.007813 H 18 V 27 h 1.992187 v 4.992188 H 15 V 33 H 13.992187 V 30.992188 H 13 Z"
       style="fill:#d9ba7a;stroke:#000000;stroke-width:0;stroke-linecap:butt;stroke-linejoin:miter;stroke-opacity:1;stroke-miterlimit:4;stroke-dasharray:none;fill-opacity:1" />
    <path
       id="path4654"
       d="m 16.992187,32.984375 h 3 v 1.007813 h -0.984375 v 2 H 18 v 2 H 17 V 39 h -1 v 0.992188 h -1.007813 v -2.984375 h 1 v -1 h 1 z"
       style="fill:#d9ba7a;stroke:#000000;stroke-width:0;stroke-linecap:butt;stroke-linejoin:miter;stroke-opacity:1;stroke-miterlimit:4;stroke-dasharray:none;fill-opacity:1" />
    <path
       id="path4656"
       d="m 19.992187,36.007813 h 0.992188 V 38 h 1 v 0.992188 H 21 V 41 h -1 v 1 h 1 v 2 h -4 v -2.007812 h 1 v -2.007813 h 0.984375 v -1.96875 h 1.007812 z"
       style="fill:#d9ba7a;stroke:#000000;stroke-width:0;stroke-linecap:butt;stroke-linejoin:miter;stroke-opacity:1;stroke-miterlimit:4;stroke-dasharray:none;fill-opacity:1" />
    <path
       id="path4658"
       d="m 31.999117,47.001341 h 0.996977 v 0.98694 l -0.983077,0.02107 z"
       style="fill:#d9ba7a;stroke:#000000;stroke-width:0;stroke-linecap:butt;stroke-linejoin:miter;stroke-opacity:1;stroke-miterlimit:4;stroke-dasharray:none;fill-opacity:1" />
    <path
       id="path4660"
       d="m 24.996094,47.996094 h 1 v 1 H 25 Z"
       style="fill:#d9ba7a;stroke:#000000;stroke-width:0;stroke-linecap:butt;stroke-linejoin:miter;stroke-opacity:1;stroke-miterlimit:4;stroke-dasharray:none;fill-opacity:1" />
    <path
       id="path4662"
       d="m 24,50 h 1 v 1 h -0.996094 z"
       style="fill:#d9ba7a;stroke:#000000;stroke-width:0;stroke-linecap:butt;stroke-linejoin:miter;stroke-opacity:1;stroke-miterlimit:4;stroke-dasharray:none;fill-opacity:1" />
    <path
       id="path4666"
       d="m 29.002887,51.999642 h 1.995167 l 0.007,0.987156 1.988215,0.02085 v 1.986644 l 4e-6,5e-6 -1.00774,3.999568 h -0.994369 v 2.983107 l 0.346602,0.75 1.277344,2.487854 0.386889,0.761719 0.582031,2.235672 0.412338,0.769531 0.6875,2.625628 0.306869,0.390625 0.648438,1.876967 0.345931,1.117188 0.617188,5.386078 0.399278,0.613281 v 8.993514 l -0.516466,0.464844 -0.5,0.518477 h -0.961223 v 0.994369 h -1.005418 v 1.027514 h -1.005417 v 1.999787 l -0.485887,0.503906 -0.519531,0.501511 h -1.005417 v 0.98332 h -0.994369 l -0.01059,-0.9811 1.001059,-0.0139 v -0.980204 l 1.00106,-0.007 -0.007,-1.995167 1.001059,-0.007 0.007,-2.002119 1.008011,0.007 -0.007,-2.002119 0.994108,-0.007 -0.0139,-1.988215 -0.980204,-0.007 v -0.987156 h 0.994108 l -0.007,-4.998345 -0.994108,-0.0139 -0.007,-4.991393 -2.002118,-0.0139 0.0139,-3.990334 h 1.00106 l -0.0139,-1.001059 -0.987156,-0.0139 -0.0139,-2.002118 -0.980204,0.007 -0.0139,-2.982322 -0.994107,-0.0139 -0.007,-2.989274 -1.988215,-0.0139 -0.0139,-2.989274 1.008011,-0.02086 -0.02086,-0.980204 -0.973252,-0.0139 v -1.981263 l 1.995167,-0.0139 -0.0139,-0.994107 -0.987156,-0.007 v -0.994108 h 1.995167 l -0.007,-1.001059 h -0.987155 l -0.007,-0.987156 -3.990334,-0.0139 -0.0139,1.008011 -0.994108,0.007 v 0.987155 l -2.989274,0.0139 -0.0139,0.987156 h -1.988215 l -0.007,1.995167 -2.996226,0.0139 0.007,0.980204 H 14.995 l -0.0139,-0.987156 -2.982323,-0.02085 v -0.980204 l -0.994107,-0.007 -0.0139,-1.988215 -1.9882149,-0.0139 v -0.987156 l 3.9903339,0.007 v 0.980204 h 5.005296 l 0.007,-0.987156 1.995167,-0.007 v -0.994108 l 4.991393,0.007 V 51.99269 h 1.008011 l -0.007,-1.001059 h 3.01013 z"
       style="fill:#d9ba7a;fill-opacity:1;stroke:#000000;stroke-width:0;stroke-linecap:butt;stroke-linejoin:miter;stroke-miterlimit:4;stroke-dasharray:none;stroke-opacity:1" />
    <path
       id="path4668"
       d="m 18.992738,61.015814 v 5.991999 h -2.000551 v 4 H 16 V 73 h -1 v 1.992188 H 14 L 13.46875,76.75 13,78 v 4 l 0.4375,0.8125 1.15625,2.585938 0.398437,0.59375 0.5625,1.210937 0.453125,0.78125 0.625,1.15625 0.367188,0.84375 0.53125,0.585938 0.481192,0.4359 -0.0139,2.989274 1.00106,0.0139 v 0.987156 l 1.014963,0.007 -0.0139,0.987156 1.995167,0.02085 0.0139,0.973253 0.980203,0.02086 -0.007,0.987156 h -0.980204 l 0.007,1.001059 2.982322,0.0139 -0.007,0.973252 H 27 l -0.40625,0.565891 -0.601563,0.44531 0.0354,1.02564 -1.035818,-0.0209 -0.0139,-0.99411 H 22.9827 l 0.0139,-0.9941 -1.008011,0.007 v -1.014967 h -0.987156 l -0.0139,-0.994108 -0.987156,-0.007 -0.007,-1.00106 H 18.99927 l -0.02086,-0.994107 -0.987155,-0.02086 -0.007,-1.988215 h -1.001059 l -0.007,-0.994107 h -0.980204 l -0.007,-2.996267 -0.994108,-0.007 0.007,1.008011 -1.008011,-0.0139 0.007,1.014963 -1.001059,-0.0139 -0.0139,-5.992453 h -1.988215 l 0.007,1.008011 -2.0090705,-0.0139 -0.00695,-1.00106 h 1.0154265 v -1.001059 h 1.008012 l -0.007,-2.996226 h 0.994107 v -1.988215 l -0.987155,-0.007 -0.02086,-0.994107 -0.9941073,-0.007 v -2.009071 l 1.0010593,-0.007 0.007,-0.994107 1.008011,0.007 v -1.008011 l 0.987156,0.0139 v -1.001059 h 1.008011 l -0.0139,-2.002119 -1.995167,-0.02086 0.007,-0.973252 1.001059,-0.02086 -0.007,-0.987155 1.008011,-0.007 -0.0139,-0.994108 1.008011,-0.007 -0.02086,-0.987155 h 1.008011 l -0.007,-2.002119 -1.974311,-0.007 -0.0139,-1.001059 h 1.001059 v -2.989274 l 2.002119,0.007 v -1.008011 z"
       style="fill:#d9ba7a;fill-opacity:1;stroke:#000000;stroke-width:0;stroke-linecap:butt;stroke-linejoin:miter;stroke-miterlimit:4;stroke-dasharray:none;stroke-opacity:1" />
    <path
       id="path4670"
       d="m 8.9959163,99.994821 h 0.9962712 v 0.981739 H 11 l 0.005,-8.969361 -3.003178,-0.0139 v 2.00907 h 1.0010593 z"
       style="fill:#d9ba7a;stroke:#000000;stroke-width:0;stroke-linecap:butt;stroke-linejoin:miter;stroke-opacity:1;stroke-miterlimit:4;stroke-dasharray:none;fill-opacity:1" />
    <path
       id="path4672"
       d="m 14.001259,102.00388 v 1.00393 h 1.983116 V 104 l 1.019917,-0.008 v -1.98822 l -1.001059,-0.007 v -0.98715 l -1.00106,-0.0139 0.007,-1.981249 -1.014963,-0.02085 0.007,-3.990334 -1.008011,-0.007 0.007,-0.994108 h -1.008012 l 0.0139,3.997286 0.980204,0.0139 0.02086,1.988215 0.994108,0.0139 z"
       style="fill:#d9ba7a;stroke:#000000;stroke-width:0;stroke-linecap:butt;stroke-linejoin:miter;stroke-opacity:1;stroke-miterlimit:4;stroke-dasharray:none;fill-opacity:1" />
    <path
       id="path4674"
       d="m 20.994626,104.00608 h 2.013186 v -1.0217 l 0.996795,0.007 -0.0139,-0.9802 -1.995167,-0.0209 0.0139,-0.9802 -1.014963,-0.0139 v -0.98715 h -0.994108 v -1.001066 l -1.001059,-0.0139 v -0.994107 h -1.008011 l 0.007,-1.00106 h -1.995166 l -0.007,2.996226 1.995167,0.01391 0.007,1.00106 h 0.987156 l 0.007,0.9802 0.980204,0.0139 0.02781,0.99411 0.987156,0.007 z"
       style="fill:#d9ba7a;stroke:#000000;stroke-width:0;stroke-linecap:butt;stroke-linejoin:miter;stroke-opacity:1;stroke-miterlimit:4;stroke-dasharray:none;fill-opacity:1" />
    <path
       id="path4676"
       d="m 1.9882149,83.998657 1.0080112,0.007 v 1.00106 l -0.9941075,-0.007 z"
       style="fill:#d9ba7a;stroke:#000000;stroke-width:0;stroke-linecap:butt;stroke-linejoin:miter;stroke-opacity:1;stroke-miterlimit:4;stroke-dasharray:none;fill-opacity:1" />
    <path
       id="path4678"
       d="m 20.994815,70.998649 1.001059,0.0139 V 72 H 21 Z"
       style="fill:#d9ba7a;stroke:#000000;stroke-width:0;stroke-linecap:butt;stroke-linejoin:miter;stroke-opacity:1;stroke-miterlimit:4;stroke-dasharray:none;fill-opacity:1" />
    <path
       id="path4680"
       d="m 23.991039,77.999157 1.008011,0.007 -0.007,1.00106 h -0.994107 z"
       style="fill:#d9ba7a;stroke:#000000;stroke-width:0;stroke-linecap:butt;stroke-linejoin:miter;stroke-opacity:1;stroke-miterlimit:4;stroke-dasharray:none;fill-opacity:1" />
    <path
       id="path4682"
       d="m 22.996094,58 h 3 v 1.003906 h 0.996094 v 7 H 28 v 3.992188 h 0.996094 v 5.007812 h -1 v 0.992188 h -1 V 75 H 26 v -2.003906 h 1 v -5 h -1 v 2.007812 h -1 v 0.992188 h -1 v 1.007812 h -1 v -2.011719 h -1 v -0.988281 h 0.996094 V 68 H 24 v -2 h 0.992188 v -1.996094 h 1.003906 v -1.996094 h -1 v 0.996094 H 24 V 64 h -1 v 1.996094 H 22 V 59 h 0.992188 z"
       style="fill:#d9ba7a;stroke:#000000;stroke-width:0;stroke-linecap:butt;stroke-linejoin:miter;stroke-opacity:1;stroke-miterlimit:4;stroke-dasharray:none;fill-opacity:1" />
    <path
       id="path4684"
       d="m 30.992187,76 v 4 h 1.023438 v 8 H 31 v 3 h -1.007813 v 2 h -0.984375 v 1.992188 H 27 v 1.015625 H 25.992187 V 95 h -3 V 94 H 22 V 93 H 21.007812 V 91.984375 H 27 v -0.976562 h 0.992187 V 90 h 1 v -1.007812 h -2 V 88 H 28 v -0.992187 h 0.992187 V 85 H 30 v -2.007812 h 0.992187 v -1 H 29.007812 V 84 H 28 v -6 h 1 v -1.984375 z"
       style="fill:#d9ba7a;stroke:#000000;stroke-width:0;stroke-linecap:butt;stroke-linejoin:miter;stroke-opacity:1;stroke-miterlimit:4;stroke-dasharray:none;fill-opacity:1" />
    <path
       id="path4686"
       d="m 7,86.007813 h 1.0078125 v 4.984375 h -1 v 3 H 6 v -1 H 5 v -4 h 0.9921875 v -1 h 1.015625 z"
       style="fill:#d9ba7a;stroke:#000000;stroke-width:0;stroke-linecap:butt;stroke-linejoin:miter;stroke-opacity:1;stroke-miterlimit:4;stroke-dasharray:none;fill-opacity:1" />
    <path
       id="path4688"
       d="m 3,86 h 0.9921875 v -0.992187 h 1.015625 V 84 h 0.984375 V 81.007813 H 7.984375 v 3 H 7 v 0.984375 H 6 v 2 H 5.0078125 v 1 H 3 Z"
       style="fill:#d9ba7a;stroke:#000000;stroke-width:0;stroke-linecap:butt;stroke-linejoin:miter;stroke-opacity:1;stroke-miterlimit:4;stroke-dasharray:none;fill-opacity:1" />
    <path
       id="path4690"
       d="M 4,81.992188 V 81 H 3 v 0.992188 z"
       style="fill:#d9ba7a;stroke:#000000;stroke-width:0;stroke-linecap:butt;stroke-linejoin:miter;stroke-opacity:1;stroke-miterlimit:4;stroke-dasharray:none;fill-opacity:1" />
    <path
       id="path4692"
       d="M 4.9921875,77.992188 H 5.984375 V 76 H 7 V 74 H 5.0078125 v 1 H 4.015625 V 73.015625 H 6 V 71.992188 H 6.9921875 V 70.984375 H 8 V 69 H 6 v -1.992187 h 1 v -1.015625 h 1 v -1 h 2 V 63.007813 H 9 v 0.976562 H 8 V 60.992188 H 9.0078125 V 58 H 11 v 1 h 2 v 0.992188 h -1.007813 v 4 h -1 v 3.015625 H 10 v 3 H 9.0078125 v 5.007812 H 8 v 0.976563 H 9 V 77 H 7.9921875 v 2.007813 H 7 v 0.984375 H 5 Z"
       style="fill:#d9ba7a;stroke:#000000;stroke-width:0;stroke-linecap:butt;stroke-linejoin:miter;stroke-opacity:1;stroke-miterlimit:4;stroke-dasharray:none;fill-opacity:1" />
    <path
       id="path4694"
       d="m 12.996094,60.996094 h 1 v 1.011718 h -0.992188 z"
       style="fill:#d9ba7a;stroke:#000000;stroke-width:0;stroke-linecap:butt;stroke-linejoin:miter;stroke-opacity:1;stroke-miterlimit:4;stroke-dasharray:none;fill-opacity:1" />
    <g
       id="layer1">
      <path
         id="path108"
         d="M 12.863026,1.7893945 13.767508,0.767 h 1.451733 L 16.026947,1.9758432 15.984375,7 l 1.349794,1.3490064 0.11341,8.2393476 5.441905,0.02201 3.096335,1.394894 3.016628,1.987246 1.994262,1.010941 0.999893,0.994369 v 2.99968 h 0.999893 v 16.003815 l -3.993621,2.982967 0.0069,2.009063 3.986299,1.008007 v 0.98694 l -0.0028,7.006011 -1.007736,3.999573 -0.994373,-5e-6 v 2.983107 l 2.010835,3.999573 0.919736,3.019874 1.022458,2.969062 0.983133,3.008387 0.05778,0.01829 0.905691,5.939499 c -0.0102,2.767972 0.04504,6.033594 0.110775,9.053374 l -3.988524,3.005204 v 1.999787 l -7.020861,6.002208 0.0493,2.08227 -1.551275,-0.0755 -1.482398,-0.0146 v 1.0217 L 15.984375,104 v -0.99219 H 14.001259 L 11.011985,102.00388 9.9921875,99.994821 7.0494121,99.96702 4.9986304,96.998605 3.9975729,94.99649 3.003178,91.006025 0.967109,90.959566 v -3.165689 l 0.924145,-0.943808 0.01966,-3.1067 -0.983133,-0.845495 V 79.69286 l 0.96347,-0.806169 0.05899,-6.154413 0.963471,-0.865157 0.03932,-6.193739 0.96347,-0.806169 0.03932,-7.157209 1.002796,-0.825832 v -4.188147 l -1.042121,-0.766844 0.01966,-3.224676 3.971857,-3.755569 0.05899,-5.190943 -1.022458,-0.786506 0.05899,-5.289256 -1.140434,-0.707856 0.01966,-4.28646 1.081446,-0.727519 -0.01966,-1.278073 -1.022458,-0.648868 0.03932,-1.278073 7.924052,-7.865064 0.07865,-2.14323 -1.042121,-0.786506 z"
         style="fill:none;stroke:#000000;stroke-width:1px;stroke-linecap:butt;stroke-linejoin:miter;stroke-opacity:1" />
      <path
         id="path110"
         d="m 16.992187,67.007813 v 4 H 16 l -1,3.984375 H 14 L 13,78 v 4 l 1.992187,3.992188 1.126157,1.935991 1.002823,2.08424 0.891275,0.993794 4.963586,0.007 1.021915,-1.014963 -0.0069,-14.995278 h -1.091433 l -0.882882,-2.002167 -1.021909,-2.002115 -2.002077,-3.990836 z"
         style="fill:none;stroke:#000000;stroke-width:1.00001323px;stroke-linecap:butt;stroke-linejoin:miter;stroke-opacity:1" />
    </g>
  </symbol>

  <symbol id="wrench" viewBox="0 0 28 99">
    <g
       id="g94">
      <path
         style="fill:#8c9d95;stroke:#000000;stroke-width:1px;stroke-linecap:butt;stroke-linejoin:miter;stroke-opacity:1;fill-opacity:1"
         d="M 0.48201612,1.4844317 C 0.38239812,0.40288399 1.0703772,0.73901101 1.4089702,0.44624314 H 21.468256 L 26.473808,5.4888733 V 7.3798596 H 1.3348139 C 0.72062581,7.0320811 0.5751492,6.7780449 0.44493795,6.5270618 Z"
         id="path70" />
      <path
         style="fill:#8c9d95;stroke:#000000;stroke-width:1px;stroke-linecap:butt;stroke-linejoin:miter;stroke-opacity:1;fill-opacity:1"
         d="M 1.3348139,7.3798596 3.411191,9.5674712 v 8.8246028 h 10.08526 V 7.4540159 Z"
         id="path72" />
      <path
         style="fill:#8c9d95;stroke:#000000;stroke-width:1px;stroke-linecap:butt;stroke-linejoin:miter;stroke-opacity:1;fill-opacity:1"
         d="m 3.411191,18.392074 h 24.02665 v 3.077487 l -4.949935,4.949935 H 2.4842369 L 1.4831265,25.548159 1.4460484,20.468451 Z"
         id="path74" />
      <path
         style="fill:#8c9d95;stroke:#000000;stroke-width:1px;stroke-linecap:butt;stroke-linejoin:miter;stroke-opacity:1;fill-opacity:1"
         d="m 2.4842369,26.419496 1.8817169,1.881717 v 9.07488 H 19.466035 v -10.90098 z"
         id="path76" />
      <path
         style="fill:#8c9d95;stroke:#000000;stroke-width:1px;stroke-linecap:butt;stroke-linejoin:miter;stroke-opacity:1;fill-opacity:1"
         d="m 4.3659538,37.376093 -0.8435283,1.038189 v 2.187612 c 0.374989,1.043185 1.0885158,1.493929 1.8539081,1.853908 H 19.428957 c 1.654224,-0.614881 2.644624,-1.45032 2.817941,-2.855019 -0.324652,-0.661227 0.105675,-1.396611 -1.872448,-2.057838 z"
         id="path78" />
      <path
         style="fill:#8c9d95;stroke:#000000;stroke-width:1px;stroke-linecap:butt;stroke-linejoin:miter;stroke-opacity:1;fill-opacity:1"
         d="m 5.3763336,42.455802 v 10.90098 H 20.467146 v -1.928065 l -1.038189,-0.889876 v -8.120118 z"
         id="path80" />
      <path
         style="fill:#8c9d95;stroke:#000000;stroke-width:1px;stroke-linecap:butt;stroke-linejoin:miter;stroke-opacity:1;fill-opacity:1"
         d="M 3.5224255,53.468016 H 21.3941 c 0.47377,0.358422 0.895195,0.716845 1.075267,1.075267 v 0.926954 c -0.88333,1.10023 -1.861354,2.13733 -3.04041,3.040409 l -1.371892,1.075267 -1.631439,0.852798 H 4.4123014 C 3.5072178,60.083137 2.8953452,59.434352 2.4842369,58.584802 v -4.041519 c 0.1337043,-0.853926 0.624324,-0.875049 1.0381886,-1.075267 z"
         id="path82" />
      <path
         style="fill:#8c9d95;stroke:#000000;stroke-width:1px;stroke-linecap:butt;stroke-linejoin:miter;stroke-opacity:1;fill-opacity:1"
         d="m 5.4875681,60.438711 -0.7071068,6.153851 -0.2940036,1.966266 v 17.945831 c 0.156741,2.019722 0.6404419,4.987444 1.8539081,6.26621 l 1.2606575,2.00222 c 1.2425331,1.589797 2.4753617,2.562525 3.7263557,3.689278 h 2.243229 c 1.110777,-0.879693 2.192372,-1.776896 2.81794,-2.947714 l 1.038189,-3.114566 0.926954,-4.04152 v -7.971805 l -0.889876,-6.933616 -1.038189,-8.008883 -1.112345,-4.894318 z"
         id="path84" />
    </g>
  </symbol>

</svg>
